<svg xmlns="http://www.w3.org/2000/svg" xmlns:xlink="http://www.w3.org/1999/xlink" version="1.1" x="0px" y="0px" fill="#FFF046" viewBox="0 0 100 125" enable-background="new 0 0 100 100" xml:space="preserve"><path d="M51.206,94.896c-12.711,0-20.412-9.479-20.501-9.59c-0.23-0.291-0.331-0.664-0.278-1.031s0.254-0.697,0.557-0.91  c1.47-1.037,3.473-1.762,5.594-2.53c4.425-1.601,7.6-2.966,8.442-5.673c-1.515,0.457-3.379,0.507-5.521,0.142  c-5.445-0.929-11.21-4.22-12.849-7.337c-0.218-0.412-0.207-0.907,0.028-1.31c0.235-0.401,0.662-0.654,1.128-0.667  c1.649-0.045,6.37-0.34,8.372-1.146c3.559-1.435,5.21-3.365,5.052-5.9c-0.068-1.078-0.472-1.486-0.77-1.699  c-1.665-1.197-5.884-0.061-7.911,0.485l-0.494,0.132c-5.878,1.557-12.353,0.272-16.106-3.197c-2.002-1.85-4.184-5.178-3.21-10.524  c0.906-4.977,4.325-9.896,9.86-9.753c2.945,0.089,5.39,1.347,7.665,2.871c-0.75-1.151-1.057-2.617-0.872-4.263  c0.373-3.304,2.698-6.999,5.186-8.236c1.957-0.975,5.986-0.904,8.443,0.648c1.006,0.635,1.686,1.486,1.986,2.464  c1.113-0.598,2.233-1.005,3.356-1.217c1.825-0.344,3.58,0.051,5.073,1.145c1.777,1.303,3.013,3.521,3.301,5.933  c0.603,5.022-3.442,9.583-7.7,11.089c-1.072,0.379-2.21,0.563-3.345,0.572c-3.896,0.799-8.68-0.324-11.897-2.361  c-0.963-0.61-1.915-1.303-2.836-1.974c-2.737-1.995-5.323-3.88-8.441-3.974c-3.989-0.139-6.427,3.699-7.125,7.539  c-0.605,3.325,0.197,6.036,2.387,8.06c3.055,2.822,8.641,3.878,13.585,2.571l0.483-0.131c2.798-0.752,7.48-2.014,10.187-0.071  c0.789,0.567,1.759,1.674,1.888,3.724c0.164,2.604-0.872,6.206-6.734,8.571c-1.659,0.669-4.436,1.011-6.527,1.181  c2.101,1.732,5.697,3.503,9.291,4.116c2.615,0.446,4.632,0.156,5.68-0.817c0.376-0.35,0.915-0.454,1.395-0.273  c0.479,0.181,0.814,0.617,0.865,1.127c0.672,6.688-5.464,8.908-10.395,10.692c-1.295,0.469-2.543,0.921-3.578,1.415  c2.897,2.814,11.329,9.575,23.077,6.693c9.356-2.294,16.346-7.117,22.661-15.637c2.717-3.67,3.667-7.968,4.547-12.799  c0.87-4.766,1.692-9.267,0.915-13.943c-0.16-0.96-0.404-2.048-0.776-3.188c-1.091,0.32-2.267,0.468-3.517,0.456  c-4.292-0.069-8.978-1.759-9.257-6.296c-0.2-3.255,1.506-4.57,2.541-5.064c2.177-1.039,5.337-0.352,7.504,1.635  c1.702,1.559,3.101,3.456,4.161,5.624c1.273-0.898,2.271-2.213,2.934-3.905c1.979-5.06,1.801-13.117-10.292-22.761l-0.35-0.28  c-7.255-5.891-18.882-4.393-25.931,0.458c-0.576,0.396-1.135,0.8-1.687,1.199c-2.907,2.103-5.915,4.276-10.197,4.29  c-0.025,0-0.051,0-0.077,0c-3.478,0-6.405-0.668-8.693-1.964c-2.915,1.321-6.543,1.838-10.48,1.443  c-4.444-0.448-10.202-3.93-13.109-7.928c-0.438-0.603-0.305-1.447,0.298-1.884c0.601-0.438,1.446-0.306,1.884,0.297  c2.468,3.393,7.491,6.457,11.198,6.83c1.573,0.16,4.711,0.291,7.718-0.674c-0.572-0.591-1.072-1.249-1.495-1.969  c-1.147-1.951-1.689-5.173-0.507-7.558c0.76-1.533,2.142-2.492,3.89-2.701c2.73-0.327,4.896,0.786,5.967,3.043  c1.301,2.748,0.555,6.481-1.735,8.685c-0.269,0.257-0.549,0.503-0.845,0.736c1.96,0.741,4.096,0.924,5.98,0.946  c3.414-0.011,5.828-1.756,8.624-3.778c0.569-0.411,1.145-0.827,1.737-1.235c7.76-5.337,20.617-7.269,29.161-0.329l0.332,0.266  C93.478,24.163,93.53,33.441,91.22,39.346c-0.945,2.417-2.46,4.272-4.398,5.468c0.414,1.219,0.735,2.504,0.958,3.845  c0.854,5.142-0.048,10.087-0.922,14.871c-0.906,4.979-1.974,9.789-5.034,13.921c-6.716,9.062-14.174,14.196-24.186,16.651  C55.375,94.656,53.227,94.896,51.206,94.896z M76.37,37.224c-0.408,0-0.784,0.07-1.099,0.221c-0.749,0.357-1.089,1.186-1.011,2.463  c0.215,3.485,5.542,3.747,6.608,3.764c0.875,0.018,1.688-0.08,2.451-0.277c-0.817-1.661-1.953-3.318-3.529-4.761  C78.823,37.748,77.479,37.224,76.37,37.224z M39.88,36.509c-0.56,1.131-0.783,2.497,0.178,3.792  c1.072,1.446,3.195,2.324,5.345,2.383c0.89-0.208,1.674-0.542,2.292-1.005c1.645-1.233,2.05-3.343,1.205-6.271  c-0.438-1.521-1.315-2.409-2.606-2.639c-1.796-0.319-4.102,0.687-5.516,2.37c-0.162,0.224-0.323,0.479-0.492,0.746  C40.158,36.085,40.025,36.296,39.88,36.509z M33.061,39.25c0.74,0.537,1.454,1.044,2.178,1.502c0.858,0.544,1.806,0.99,2.788,1.335  c-0.046-0.059-0.092-0.119-0.137-0.179c-0.721-0.972-1.114-2.045-1.183-3.165C35.68,39.089,34.351,39.489,33.061,39.25z   M46.608,30.086c0.053,0.008,0.105,0.017,0.158,0.026c2.321,0.414,3.999,2.029,4.726,4.548c0.603,2.088,0.652,3.772,0.379,5.127  c1.477-1.572,2.439-3.625,2.188-5.735c-0.202-1.684-1.031-3.208-2.217-4.078c-0.887-0.65-1.889-0.875-2.979-0.669  C48.088,29.452,47.334,29.725,46.608,30.086z M37.918,26.815c-0.889,0-1.682,0.131-2.14,0.359c-1.508,0.75-3.413,3.528-3.705,6.123  c-0.155,1.378,0.17,2.408,0.966,3.059c0.626,0.515,1.652,0.222,3.035-0.248c0.229-0.078,0.451-0.153,0.664-0.22  c0.284-0.089,0.552-0.386,0.82-0.767c0.223-0.422,0.486-0.844,0.794-1.261c0.098-0.133,0.199-0.264,0.305-0.392  c0.067-0.09,0.137-0.179,0.208-0.266c1.213-1.467,2.44-2.698,3.681-3.688c-0.042-0.134-0.063-0.276-0.061-0.423  c0.006-0.353-0.081-0.882-0.905-1.403C40.608,27.075,39.168,26.815,37.918,26.815z M31.799,7.801c-0.192,0-0.393,0.013-0.602,0.038  c-0.85,0.102-1.436,0.5-1.793,1.221c-0.721,1.455-0.354,3.681,0.415,4.992c0.5,0.85,1.127,1.547,1.839,2.118  c0.558-0.349,1.088-0.755,1.579-1.227c1.445-1.389,1.969-3.895,1.167-5.585C33.915,8.323,33.04,7.801,31.799,7.801z"/></svg>
